<svg width="18" height="31" viewBox="0 0 18 31" fill="none" xmlns="http://www.w3.org/2000/svg">
<path d="M17.3748 14.0138L3.84643 0.485655C3.53354 0.172512 3.11585 0 2.67048 0C2.22511 0 1.80743 0.172512 1.49453 0.485655L0.498259 1.48168C-0.150021 2.1307 -0.150021 3.18555 0.498259 3.83358L11.8584 15.1937L0.485655 26.5664C0.17276 26.8796 0 27.297 0 27.7421C0 28.1877 0.17276 28.6052 0.485655 28.9186L1.48193 29.9143C1.79507 30.2275 2.21251 30.4 2.65788 30.4C3.10325 30.4 3.52093 30.2275 3.83383 29.9143L17.3748 16.3738C17.6885 16.0597 17.8607 15.6403 17.8597 15.1944C17.8607 14.7468 17.6885 14.3277 17.3748 14.0138Z" fill="#0C0C0C"/>
</svg>
