<svg width="18" height="31" viewBox="0 0 18 31" fill="none" xmlns="http://www.w3.org/2000/svg">
<path d="M0.483949 16.3861L14.0123 29.9142C14.3252 30.2274 14.7429 30.3999 15.1883 30.3999C15.6337 30.3999 16.0513 30.2274 16.3642 29.9142L17.3605 28.9182C18.0088 28.2692 18.0088 27.2144 17.3605 26.5663L6.00039 15.2062L17.3731 3.83349C17.686 3.52034 17.8588 3.1029 17.8588 2.65778C17.8588 2.21217 17.686 1.79472 17.3731 1.48133L16.3768 0.485557C16.0637 0.172417 15.6463 -9.55609e-05 15.2009 -9.55998e-05C14.7555 -9.56387e-05 14.3378 0.172416 14.0249 0.485557L0.483949 14.0261C0.170312 14.3402 -0.00195176 14.7596 -0.00096379 15.2055C-0.00195184 15.6531 0.170312 16.0722 0.483949 16.3861Z" fill="#0C0C0C"/>
</svg>
